<?xml version="1.0" encoding="UTF-8" standalone="no"?>
<!-- Created with Inkscape (http://www.inkscape.org/) -->

<svg
   width="8.3847237in"
   height="4.5041628in"
   viewBox="0 0 603.7001 324.29972"
   version="1.1"
   id="svg5"
   inkscape:version="1.2.2 (1:1.2.2+202212051552+b0a8486541)"
   sodipodi:docname="fig01.svg"
   xmlns:inkscape="http://www.inkscape.org/namespaces/inkscape"
   xmlns:sodipodi="http://sodipodi.sourceforge.net/DTD/sodipodi-0.dtd"
   xmlns="http://www.w3.org/2000/svg"
   xmlns:svg="http://www.w3.org/2000/svg">
  <sodipodi:namedview
     id="namedview7"
     pagecolor="#ffffff"
     bordercolor="#666666"
     borderopacity="1.0"
     inkscape:showpageshadow="2"
     inkscape:pageopacity="0.0"
     inkscape:pagecheckerboard="0"
     inkscape:deskcolor="#d1d1d1"
     inkscape:document-units="pt"
     showgrid="false"
     inkscape:zoom="0.80759804"
     inkscape:cx="453.81487"
     inkscape:cy="381.99697"
     inkscape:window-width="1657"
     inkscape:window-height="861"
     inkscape:window-x="50"
     inkscape:window-y="118"
     inkscape:window-maximized="0"
     inkscape:current-layer="layer1" />
  <defs
     id="defs2">
    <inkscape:path-effect
       effect="bspline"
       id="path-effect1257"
       is_visible="true"
       lpeversion="1"
       weight="33.333333"
       steps="2"
       helper_size="0"
       apply_no_weight="true"
       apply_with_weight="true"
       only_selected="false" />
    <inkscape:path-effect
       effect="bspline"
       id="path-effect1251"
       is_visible="true"
       lpeversion="1"
       weight="33.333333"
       steps="2"
       helper_size="0"
       apply_no_weight="true"
       apply_with_weight="true"
       only_selected="false" />
    <inkscape:path-effect
       effect="bspline"
       id="path-effect1245"
       is_visible="true"
       lpeversion="1"
       weight="33.333333"
       steps="2"
       helper_size="0"
       apply_no_weight="true"
       apply_with_weight="true"
       only_selected="false" />
    <inkscape:path-effect
       effect="bspline"
       id="path-effect1239"
       is_visible="true"
       lpeversion="1"
       weight="33.333333"
       steps="2"
       helper_size="0"
       apply_no_weight="true"
       apply_with_weight="true"
       only_selected="false" />
    <inkscape:path-effect
       effect="bspline"
       id="path-effect1233"
       is_visible="true"
       lpeversion="1"
       weight="33.333333"
       steps="2"
       helper_size="0"
       apply_no_weight="true"
       apply_with_weight="true"
       only_selected="false" />
    <inkscape:path-effect
       effect="bspline"
       id="path-effect1227"
       is_visible="true"
       lpeversion="1"
       weight="33.333333"
       steps="2"
       helper_size="0"
       apply_no_weight="true"
       apply_with_weight="true"
       only_selected="false" />
    <inkscape:path-effect
       effect="bspline"
       id="path-effect1221"
       is_visible="true"
       lpeversion="1"
       weight="33.333333"
       steps="2"
       helper_size="0"
       apply_no_weight="true"
       apply_with_weight="true"
       only_selected="false" />
    <inkscape:path-effect
       effect="bspline"
       id="path-effect1215"
       is_visible="true"
       lpeversion="1"
       weight="33.333333"
       steps="2"
       helper_size="0"
       apply_no_weight="true"
       apply_with_weight="true"
       only_selected="false" />
    <inkscape:path-effect
       effect="bspline"
       id="path-effect1203"
       is_visible="true"
       lpeversion="1"
       weight="33.333333"
       steps="2"
       helper_size="0"
       apply_no_weight="true"
       apply_with_weight="true"
       only_selected="false" />
    <inkscape:path-effect
       effect="bspline"
       id="path-effect1197"
       is_visible="true"
       lpeversion="1"
       weight="33.333333"
       steps="2"
       helper_size="0"
       apply_no_weight="true"
       apply_with_weight="true"
       only_selected="false" />
    <inkscape:path-effect
       effect="bspline"
       id="path-effect1179"
       is_visible="true"
       lpeversion="1"
       weight="33.333333"
       steps="2"
       helper_size="0"
       apply_no_weight="true"
       apply_with_weight="true"
       only_selected="false" />
    <inkscape:path-effect
       effect="bspline"
       id="path-effect1161"
       is_visible="true"
       lpeversion="1"
       weight="33.333333"
       steps="2"
       helper_size="0"
       apply_no_weight="true"
       apply_with_weight="true"
       only_selected="false" />
    <inkscape:path-effect
       effect="bspline"
       id="path-effect1155"
       is_visible="true"
       lpeversion="1"
       weight="33.333333"
       steps="2"
       helper_size="0"
       apply_no_weight="true"
       apply_with_weight="true"
       only_selected="false" />
    <inkscape:path-effect
       effect="bspline"
       id="path-effect1149"
       is_visible="true"
       lpeversion="1"
       weight="33.333333"
       steps="2"
       helper_size="0"
       apply_no_weight="true"
       apply_with_weight="true"
       only_selected="false" />
    <inkscape:path-effect
       effect="bspline"
       id="path-effect1143"
       is_visible="true"
       lpeversion="1"
       weight="33.333333"
       steps="2"
       helper_size="0"
       apply_no_weight="true"
       apply_with_weight="true"
       only_selected="false" />
    <inkscape:path-effect
       effect="bspline"
       id="path-effect1137"
       is_visible="true"
       lpeversion="1"
       weight="33.333333"
       steps="2"
       helper_size="0"
       apply_no_weight="true"
       apply_with_weight="true"
       only_selected="false" />
    <inkscape:path-effect
       effect="bspline"
       id="path-effect1131"
       is_visible="true"
       lpeversion="1"
       weight="33.333333"
       steps="2"
       helper_size="0"
       apply_no_weight="true"
       apply_with_weight="true"
       only_selected="false" />
    <inkscape:path-effect
       effect="bspline"
       id="path-effect1113"
       is_visible="true"
       lpeversion="1"
       weight="33.333333"
       steps="2"
       helper_size="0"
       apply_no_weight="true"
       apply_with_weight="true"
       only_selected="false" />
    <inkscape:path-effect
       effect="bspline"
       id="path-effect457"
       is_visible="true"
       lpeversion="1"
       weight="33.333333"
       steps="2"
       helper_size="0"
       apply_no_weight="true"
       apply_with_weight="true"
       only_selected="false" />
    <inkscape:path-effect
       effect="bspline"
       id="path-effect247"
       is_visible="true"
       lpeversion="1"
       weight="33.333333"
       steps="2"
       helper_size="0"
       apply_no_weight="true"
       apply_with_weight="true"
       only_selected="false" />
    <inkscape:path-effect
       effect="bspline"
       id="path-effect243"
       is_visible="true"
       lpeversion="1"
       weight="33.333333"
       steps="2"
       helper_size="0"
       apply_no_weight="true"
       apply_with_weight="true"
       only_selected="false" />
    <inkscape:path-effect
       effect="bspline"
       id="path-effect239"
       is_visible="true"
       lpeversion="1"
       weight="33.333333"
       steps="2"
       helper_size="0"
       apply_no_weight="true"
       apply_with_weight="true"
       only_selected="false" />
    <inkscape:path-effect
       effect="bspline"
       id="path-effect235"
       is_visible="true"
       lpeversion="1"
       weight="33.333333"
       steps="2"
       helper_size="0"
       apply_no_weight="true"
       apply_with_weight="true"
       only_selected="false" />
  </defs>
  <g
     inkscape:label="Layer 1"
     inkscape:groupmode="layer"
     id="layer1"
     transform="translate(-77.26505,-63.045013)">
    <path
       style="fill:none;stroke:#000000;stroke-width:0.75px;stroke-linecap:butt;stroke-linejoin:miter;stroke-opacity:1"
       d="M 112.49122,373.56815 C 197.39566,271.87454 282.30016,170.18085 367.20472,68.487101"
       id="path233"
       inkscape:path-effect="#path-effect235"
       inkscape:original-d="M 112.49122,373.56815 C 197.39647,271.87521 282.30097,170.18153 367.20472,68.487101"
       sodipodi:nodetypes="cc" />
    <path
       style="fill:none;stroke:#000000;stroke-width:0.75px;stroke-linecap:butt;stroke-linejoin:miter;stroke-opacity:1"
       d="M 307.94414,63.127923 C 284.67133,165.78577 261.39864,268.44306 238.12608,371.09981"
       id="path237"
       inkscape:path-effect="#path-effect239"
       inkscape:original-d="M 307.94414,63.127923 C 284.67221,165.78597 261.39952,268.44326 238.12608,371.09981" />
    <path
       style="fill:none;stroke:#000000;stroke-width:0.75px;stroke-linecap:butt;stroke-linejoin:miter;stroke-opacity:1"
       d="M 80.537527,366.95748 C 176.15699,297.12606 271.77632,227.29474 367.39552,157.46352"
       id="path241"
       inkscape:path-effect="#path-effect243"
       inkscape:original-d="M 80.537527,366.95748 C 176.15761,297.12691 271.77694,227.29559 367.39552,157.46352" />
    <path
       style="fill:none;stroke:#000000;stroke-width:0.75px;stroke-linecap:butt;stroke-linejoin:miter;stroke-opacity:1"
       d="M 85.158592,145.68347 C 168.7561,219.61039 252.35282,293.53661 335.94874,367.46212"
       id="path245"
       inkscape:path-effect="#path-effect247"
       inkscape:original-d="M 85.158592,145.68347 C 168.75605,219.61044 252.35277,293.53666 335.94874,367.46212" />
    <path
       style="fill:none;stroke:#000000;stroke-width:0.75px;stroke-linecap:butt;stroke-linejoin:miter;stroke-opacity:1"
       d="M 77.486215,305.25126 C 173.10568,235.41984 268.72501,165.58852 364.34421,95.757298"
       id="path453"
       inkscape:path-effect="#path-effect457"
       inkscape:original-d="M 77.486215,305.25126 C 173.1063,235.42069 268.72563,165.58937 364.34421,95.757298" />
    <path
       id="path1109"
       style="fill:#c83737;stroke:#000000;stroke-width:0.749999px;stroke-linecap:butt;stroke-linejoin:miter;stroke-opacity:1"
       inkscape:path-effect="#path-effect1113"
       inkscape:original-d="m 169.31816,289.03454 8.17057,6.93842 6.30687,8.66056 -8.17057,-6.93843 z"
       d="m 169.31816,289.03454 c 0,0 8.17057,6.93842 8.17057,6.93842 0,0 6.30687,8.66056 6.30687,8.66056 0,0 -8.17057,-6.93843 -8.17057,-6.93843 0,0 -6.30687,-8.66055 -6.30687,-8.66055 z"
       sodipodi:nodetypes="ccccc" />
    <path
       id="path1127"
       style="fill:#2c89a0;stroke:#000000;stroke-width:0.749996px;stroke-linecap:butt;stroke-linejoin:miter;stroke-opacity:1"
       inkscape:path-effect="#path-effect1131"
       inkscape:original-d="m 210.88884,263.73454 -8.07811,-6.83722 6.96767,-7.87545 8.07811,6.83722 z"
       d="m 210.88884,263.73454 c 0,0 -8.07811,-6.83722 -8.07811,-6.83722 0,0 6.96767,-7.87545 6.96767,-7.87545 0,0 8.07811,6.83722 8.07811,6.83722 0,0 -6.96767,7.87545 -6.96767,7.87545 z"
       sodipodi:nodetypes="ccccc" />
    <path
       id="path1133"
       style="fill:#ffcc00;stroke:#000000;stroke-width:0.750006px;stroke-linecap:butt;stroke-linejoin:miter;stroke-opacity:1"
       inkscape:path-effect="#path-effect1137"
       inkscape:original-d="m 283.04235,170.1473 10.53423,2.31579 -8.24414,-6.76951 -10.53423,-2.31579 z"
       d="m 283.04235,170.1473 c 0,0 10.53423,2.31579 10.53423,2.31579 0,0 -8.24414,-6.76951 -8.24414,-6.76951 0,0 -10.53423,-2.31579 -10.53423,-2.31579 0,0 8.24414,6.76951 8.24414,6.76951 z"
       sodipodi:nodetypes="ccccc" />
    <path
       id="path1139"
       style="fill:#aa8800;stroke:#000000;stroke-width:0.750004px;stroke-linecap:butt;stroke-linejoin:miter;stroke-opacity:1"
       inkscape:path-effect="#path-effect1143"
       inkscape:original-d="m 296.04755,156.88072 -6.14505,-8.30044 -10.17234,-2.27488 6.14505,8.30044 z"
       d="m 296.04755,156.88072 c 0,0 -6.14505,-8.30044 -6.14505,-8.30044 0,0 -10.17234,-2.27488 -10.17234,-2.27488 0,0 6.14505,8.30044 6.14505,8.30044 0,0 10.17234,2.27488 10.17234,2.27488 z"
       sodipodi:nodetypes="ccccc" />
    <path
       id="path1145"
       style="fill:#216778;stroke:#000000;stroke-width:0.749996px;stroke-linecap:butt;stroke-linejoin:miter;stroke-opacity:1"
       inkscape:path-effect="#path-effect1149"
       inkscape:original-d="m 173.94682,229.67948 6.93225,-7.87565 6.20381,8.53446 -6.93225,7.87563 z"
       d="m 173.94682,229.67948 c 0,0 6.93225,-7.87565 6.93225,-7.87565 0,0 6.20381,8.53446 6.20381,8.53446 0,0 -6.93225,7.87563 -6.93225,7.87563 0,0 -6.20381,-8.53444 -6.20381,-8.53444 z"
       sodipodi:nodetypes="ccccc" />
    <path
       id="path1151"
       style="fill:#87cdde;stroke:#000000;stroke-width:0.749999px;stroke-linecap:butt;stroke-linejoin:miter;stroke-opacity:1"
       inkscape:path-effect="#path-effect1155"
       inkscape:original-d="m 246.51453,298.74064 6.95948,-7.76975 10.30996,2.30756 -6.95948,7.76974 z"
       d="m 246.51453,298.74064 c 0,0 6.95948,-7.76975 6.95948,-7.76975 0,0 10.30996,2.30756 10.30996,2.30756 0,0 -6.95948,7.76974 -6.95948,7.76974 0,0 -10.30996,-2.30755 -10.30996,-2.30755 z"
       sodipodi:nodetypes="ccccc" />
    <path
       id="path1157"
       style="fill:#e9afaf;stroke:#000000;stroke-width:0.750003px;stroke-linecap:butt;stroke-linejoin:miter;stroke-opacity:1"
       inkscape:path-effect="#path-effect1161"
       inkscape:original-d="m 306.09679,125.21251 8.16883,6.93696 6.30554,8.65872 -8.16884,-6.93696 z"
       d="m 306.09679,125.21251 c 0,0 8.16883,6.93696 8.16883,6.93696 0,0 6.30554,8.65872 6.30554,8.65872 0,0 -8.16884,-6.93696 -8.16884,-6.93696 0,0 -6.30553,-8.65872 -6.30553,-8.65872 z"
       sodipodi:nodetypes="ccccc" />
    <path
       id="path1193"
       style="fill:#5fbcd3;stroke:#000000;stroke-width:0.75px;stroke-linecap:butt;stroke-linejoin:miter;stroke-opacity:1"
       inkscape:path-effect="#path-effect1197"
       inkscape:original-d="m 213.51192,264.69446 6.96612,-7.91377 6.23412,8.57577 -6.96611,7.91377 z"
       d="m 213.51192,264.69446 c 0,0 6.96612,-7.91377 6.96612,-7.91377 0,0 6.23412,8.57577 6.23412,8.57577 0,0 -6.96611,7.91377 -6.96611,7.91377 0,0 -6.23413,-8.57577 -6.23413,-8.57577 z"
       sodipodi:nodetypes="ccccc" />
    <path
       id="path1211"
       style="fill:#ffdd55;stroke:#000000;stroke-width:0.75px;stroke-linecap:butt;stroke-linejoin:miter;stroke-opacity:1"
       inkscape:path-effect="#path-effect1215"
       inkscape:original-d="m 278.68532,233.50585 -6.15087,-8.30851 -10.18198,-2.27709 6.15087,8.30851 z"
       d="m 278.68532,233.50585 c 0,0 -6.15087,-8.30851 -6.15087,-8.30851 0,0 -10.18198,-2.27709 -10.18198,-2.27709 0,0 6.15087,8.30851 6.15087,8.30851 0,0 10.18198,2.27709 10.18198,2.27709 z"
       sodipodi:nodetypes="ccccc" />
    <path
       id="path1175"
       style="fill:#c83737;stroke:#000000;stroke-width:0.75px;stroke-linecap:butt;stroke-linejoin:miter;stroke-opacity:1"
       inkscape:path-effect="#path-effect1179"
       inkscape:original-d="m 457.56922,262.11711 56.87389,48.18482 43.90104,60.14437 -56.87389,-48.18482 z"
       d="m 457.56922,262.11711 c 0,0 56.87389,48.18482 56.87389,48.18482 0,0 43.90104,60.14437 43.90104,60.14437 0,0 -56.87389,-48.18482 -56.87389,-48.18482 0,0 -43.90104,-60.14437 -43.90104,-60.14437 z"
       sodipodi:nodetypes="ccccc" />
    <path
       id="path1199"
       style="fill:#5fbcd3;stroke:#000000;stroke-width:0.75px;stroke-linecap:butt;stroke-linejoin:miter;stroke-opacity:1"
       inkscape:path-effect="#path-effect1203"
       inkscape:original-d="m 514.44311,310.30193 49.05578,-55.50162 43.90101,60.14437 -49.05575,55.50162 z"
       d="m 514.44311,310.30193 c 0,0 49.05578,-55.50162 49.05578,-55.50162 0,0 43.90101,60.14437 43.90101,60.14437 0,0 -49.05575,55.50162 -49.05575,55.50162 0,0 -43.90104,-60.14437 -43.90104,-60.14437 z"
       sodipodi:nodetypes="ccccc" />
    <path
       id="path1217"
       style="fill:#ffdd55;stroke:#000000;stroke-width:0.75px;stroke-linecap:butt;stroke-linejoin:miter;stroke-opacity:1"
       inkscape:path-effect="#path-effect1221"
       inkscape:original-d="m 680.07242,331.42826 -43.90104,-60.14437 -72.67251,-16.48358 43.90103,60.14437 z"
       d="m 680.07242,331.42826 c 0,0 -43.90104,-60.14437 -43.90104,-60.14437 0,0 -72.67251,-16.48358 -72.67251,-16.48358 0,0 43.90103,60.14437 43.90103,60.14437 0,0 72.67252,16.48358 72.67252,16.48358 z"
       sodipodi:nodetypes="ccccc" />
    <path
       id="path1223"
       style="fill:#2c89a0;stroke:#000000;stroke-width:0.75px;stroke-linecap:butt;stroke-linejoin:miter;stroke-opacity:1"
       inkscape:path-effect="#path-effect1227"
       inkscape:original-d="m 514.44311,310.30193 -56.87389,-48.18482 49.05576,-55.50162 56.87389,48.18482 z"
       d="m 514.44311,310.30193 c 0,0 -56.87389,-48.18482 -56.87389,-48.18482 0,0 49.05576,-55.50162 49.05576,-55.50162 0,0 56.87389,48.18482 56.87389,48.18482 0,0 -49.05576,55.50162 -49.05576,55.50162 z"
       sodipodi:nodetypes="ccccc" />
    <path
       id="path1229"
       style="fill:#ffcc00;stroke:#000000;stroke-width:0.75px;stroke-linecap:butt;stroke-linejoin:miter;stroke-opacity:1"
       inkscape:path-effect="#path-effect1233"
       inkscape:original-d="m 563.49887,254.80031 72.67251,16.48358 -56.87388,-48.18483 -72.67252,-16.48357 z"
       d="m 563.49887,254.80031 c 0,0 72.67251,16.48358 72.67251,16.48358 0,0 -56.87388,-48.18483 -56.87388,-48.18483 0,0 -72.67252,-16.48357 -72.67252,-16.48357 0,0 56.87389,48.18482 56.87389,48.18482 z"
       sodipodi:nodetypes="ccccc" />
    <path
       id="path1235"
       style="fill:#de8787;stroke:#000000;stroke-width:0.75px;stroke-linecap:butt;stroke-linejoin:miter;stroke-opacity:1"
       inkscape:path-effect="#path-effect1239"
       inkscape:original-d="m 535.39646,162.9547 56.87389,48.18482 43.90103,60.14437 -56.87388,-48.18483 z"
       d="m 535.39646,162.9547 c 0,0 56.87389,48.18482 56.87389,48.18482 0,0 43.90103,60.14437 43.90103,60.14437 0,0 -56.87388,-48.18483 -56.87388,-48.18483 0,0 -43.90104,-60.14436 -43.90104,-60.14436 z"
       sodipodi:nodetypes="ccccc" />
    <path
       id="path1241"
       style="fill:#806600;stroke:#000000;stroke-width:0.75px;stroke-linecap:butt;stroke-linejoin:miter;stroke-opacity:1"
       inkscape:path-effect="#path-effect1245"
       inkscape:original-d="m 579.2975,223.09906 -43.90104,-60.14436 -72.67251,-16.48358 43.90103,60.14437 z"
       d="m 579.2975,223.09906 c 0,0 -43.90104,-60.14436 -43.90104,-60.14436 0,0 -72.67251,-16.48358 -72.67251,-16.48358 0,0 43.90103,60.14437 43.90103,60.14437 0,0 72.67252,16.48357 72.67252,16.48357 z"
       sodipodi:nodetypes="ccccc" />
    <path
       id="path1247"
       style="fill:#216778;stroke:#000000;stroke-width:0.75px;stroke-linecap:butt;stroke-linejoin:miter;stroke-opacity:1"
       inkscape:path-effect="#path-effect1251"
       inkscape:original-d="m 413.66817,201.97274 49.05578,-55.50162 43.90101,60.14437 -49.05576,55.50162 z"
       d="m 413.66817,201.97274 c 0,0 49.05578,-55.50162 49.05578,-55.50162 0,0 43.90101,60.14437 43.90101,60.14437 0,0 -49.05576,55.50162 -49.05576,55.50162 0,0 -43.90103,-60.14437 -43.90103,-60.14437 z"
       sodipodi:nodetypes="ccccc" />
    <path
       id="path1253"
       style="fill:#87cdde;stroke:#000000;stroke-width:0.75px;stroke-linecap:butt;stroke-linejoin:miter;stroke-opacity:1"
       inkscape:path-effect="#path-effect1257"
       inkscape:original-d="m 558.34415,370.4463 49.05575,-55.50162 72.67252,16.48358 -49.05576,55.50161 z"
       d="m 558.34415,370.4463 c 0,0 49.05575,-55.50162 49.05575,-55.50162 0,0 72.67252,16.48358 72.67252,16.48358 0,0 -49.05576,55.50161 -49.05576,55.50161 0,0 -72.67251,-16.48357 -72.67251,-16.48357 z"
       sodipodi:nodetypes="ccccc" />
  </g>
</svg>
